<svg xmlns="http://www.w3.org/2000/svg" viewBox="0 0 1200 1600" fill="none">
  <g stroke="#263f3b" stroke-width="2" opacity=".62">
    <path d="M90 260c160 44 250 42 408-22 176-72 294-66 520 38" />
    <path d="M34 520c190-92 386-86 566 18 142 82 318 110 542 14" />
    <path d="M116 830c160-34 282-22 388 42 138 84 312 78 552-18" />
    <path d="M18 1170c172 46 322 30 476-44 196-94 372-78 612 60" />
    <path d="M186 92c28 186 24 344-12 474-38 138-20 296 52 474 52 128 60 274 24 438" />
    <path d="M594 66c-34 178-20 344 42 498 62 156 64 304 8 444-52 130-54 292-6 486" />
    <path d="M948 140c-88 142-112 286-72 432 38 140 18 272-60 396-92 148-102 306-32 474" />
  </g>
  <g stroke="#c89d48" stroke-width="3" opacity=".54">
    <path d="M172 706 1010 420" />
    <path d="M250 440 960 958" />
    <path d="M174 1038 1060 1148" />
  </g>
  <g fill="#9d1f1f" opacity=".55">
    <circle cx="492" cy="596" r="8" />
    <circle cx="720" cy="718" r="7" />
    <circle cx="612" cy="932" r="6" />
    <circle cx="842" cy="516" r="5" />
  </g>
</svg>
